<?xml version="1.0" encoding="UTF-8"?><svg id="Layer_1" xmlns="http://www.w3.org/2000/svg" viewBox="0 0 64 64"><defs><style>.cls-1{fill:#000;}.cls-1,.cls-2,.cls-3{stroke-width:0px;}.cls-2{fill:gray;}.cls-3{fill:#ededed;}.cls-4{fill:none;stroke:#ededed;stroke-miterlimit:10;stroke-width:4px;}</style></defs><rect class="cls-2" x="11.87" y="11.87" width="40.26" height="40.26" transform="translate(-13.25 32) rotate(-45)"/><path class="cls-1" d="M32,7.07l24.93,24.93-24.93,24.93L7.07,32,32,7.07M32,0L0,32l32,32,32-32L32,0h0Z"/><rect class="cls-3" x="21.76" y="28.72" width="20.47" height="14.62" rx="4.13" ry="4.13"/><rect class="cls-4" x="27.23" y="20.66" width="9.54" height="11.36" rx="3.12" ry="3.12"/><path class="cls-2" d="M32.9,36.06l.86,3.59h-3.52l.86-3.59c-.51-.3-.86-.86-.86-1.5,0-.98.79-1.77,1.76-1.77s1.76.79,1.76,1.77c0,.64-.35,1.2-.86,1.5Z"/></svg>